<svg xmlns="http://www.w3.org/2000/svg" style="enable-background:new 0 0 290 110" width="290" height="110" class="svg-logo" viewBox="0 0 290 110"><g id="mark"><linearGradient id="shape_1_" x1="129.7" x2="-21.858" y1="37.473" y2="85.52" gradientUnits="userSpaceOnUse"><stop style="stop-color:#0096dc" offset="0"></stop><stop style="stop-color:#008ed3" offset=".149"></stop><stop style="stop-color:#0077bc" offset=".387"></stop><stop style="stop-color:#005396" offset=".684"></stop><stop style="stop-color:#002566" offset="1"></stop></linearGradient><path style="fill:url(#shape_1_)" d="M23.7 109L1.2 41.5 57.3 1.2 80.6 18s2.3 1.5 5 3.7c3.2 2.6 4.1 5.7 4.1 5.7l12.4 35.8s1.7 4.9.3 8.8c-1.3 3.9-1.9 5.5-1.9 5.5L90.8 109H23.7z" class="svg-shape"></path><linearGradient id="shape_x5F__x5F__x5F_reflex_1_" x1="54.458" x2="54.458" y1="115.248" y2="31.618" gradientUnits="userSpaceOnUse"><stop style="stop-color:#0096dc" offset="0"></stop><stop style="stop-color:#0069ad" offset=".42"></stop><stop style="stop-color:#002566" offset="1"></stop></linearGradient><path style="fill:url(#shape_x5F__x5F__x5F_reflex_1_)" d="M101.3 62.2l-2.9-8.3c-27.1-27.1-65-25.8-92.1 1.3L24 108.6l66.6.1L102.3 71c.8-3.9-.1-6.1-1-8.8z" class="svg-shape_x5F__x5F__x5F_reflex"></path><linearGradient id="fold_x5F__x5F__x5F_shadow_x5F__x5F__x5F_gradient_1_" x1="75.889" x2="102.397" y1="46.841" y2="46.841" gradientUnits="userSpaceOnUse"><stop style="stop-color:#0096dc" offset="0"></stop><stop style="stop-color:#005396" offset=".573"></stop><stop style="stop-color:#002566" offset="1"></stop></linearGradient><path style="fill:url(#fold_x5F__x5F__x5F_shadow_x5F__x5F__x5F_gradient_1_)" d="M89.9 28.8l12.5 36.1c-4.8-4.9-12.4-7-12.4-7L75.9 54 85 42.7s5-4.2 4.9-13.9z" class="svg-fold_x5F__x5F__x5F_shadow_x5F__x5F__x5F_gradient"></path><path style="fill:#002d59;stroke:#002d59;stroke-width:.3261;stroke-linecap:square" d="M89.1 26.4L102.4 65s-.5-2.6-7.4-7.3c-2.5-1.7-18.5-8.8-18.5-8.8S86.8 40 88.4 35.7c1.9-5.2.7-9.3.7-9.3z" class="svg-fold_x5F__x5F__x5F_shadow"></path><linearGradient id="fold_x5F__x5F__x5F_gradient_1_" x1="80.611" x2="96.988" y1="50.821" y2="44.839" gradientUnits="userSpaceOnUse"><stop style="stop-color:#f0f0f0" offset="0"></stop><stop style="stop-color:#c9c9c9" offset=".31"></stop><stop style="stop-color:#999" offset=".714"></stop><stop style="stop-color:#b9b9b9" offset=".766"></stop><stop style="stop-color:#d5d5d5" offset=".825"></stop><stop style="stop-color:#e9e9e9" offset=".883"></stop><stop style="stop-color:#f5f5f5" offset=".942"></stop><stop style="stop-color:#f9f9f9" offset="1"></stop></linearGradient><path style="fill:url(#fold_x5F__x5F__x5F_gradient_1_)" d="M89.9 26.8l12.8 36.6c-3.2-4.5-7.7-6-12.1-8.1-2.8-1.4-14-6.5-14-6.5s8.8-7.6 11.2-12.1c3-5.4 2.1-9.9 2.1-9.9z" class="svg-fold_x5F__x5F__x5F_gradient"></path><path style="fill:#fff;stroke:#002566;stroke-width:.4347" d="M30.8 87.3L53 29.4h8.4l23.3 57.9H76l-6.6-17.5H45.3L39 87.3h-8.2zm16.7-23.9h19.7L57.1 35.5l-9.6 27.9z" class="svg-type"></path><path style="fill:#fff" id="outline" d="M103.1 63L90.6 27.2c0-.1-1-3.5-4.5-6.3-2.7-2.1-4.9-3.7-5-3.7L57.3 0 0 41.1 23 110h68.5l10-32.1s.5-1.5 1.8-5.5c1.5-4.2-.2-9.2-.2-9.4zm-1.6 8.8c-1.3 3.9-1.9 5.5-1.9 5.5L90 108H24.4l-22-66.1L57.3 2.5 80 18.9s2.3 1.5 4.9 3.6c2.9 2.3 3.8 5.2 3.8 5.3l12.4 35.8c.1.1 1.6 4.6.4 8.2z"></path></g><path style="fill:#fff" id="apa" d="M141.9 42.1L117 110h9.2l7-20.5h27.2l7.4 20.5h9.8l-26.1-67.9h-9.6zm-6.2 40l10.8-32.3 11.3 32.3h-22.1zm149.5-39.2c-.1-.1-.3-.3-.6-.3.6 0 1-.2 1.4-.6.3-.4.5-.8.5-1.3 0-.3-.1-.7-.3-1-.2-.3-.5-.5-.8-.6-.3-.1-.9-.2-1.7-.2h-2.3v6.6h1v-2.8h.6c.4 0 .7.1.9.2.3.2.6.7 1.1 1.5l.6 1h1.3l-.8-1.3c-.3-.5-.6-1-.9-1.2zm-1.4-1.1h-1.3v-2h1.2c.5 0 .9 0 1.1.1.2.1.3.2.5.3.1.2.2.3.2.5 0 .3-.1.5-.3.7-.3.3-.7.4-1.4.4zM227 76.3c3.5-4 5.3-8.8 5.3-14.6 0-3.3-.7-6.4-2-9.2-1.3-2.8-3-5-5.2-6.5s-4.8-2.6-8-3.2c-2.3-.4-5.6-.6-9.9-.6h-24.5V110h8.7V82.3H208c9.1 0 15.5-2 19-6zm-7.1-5.2c-2.3 2.2-6.3 3.2-11.8 3.2h-16.8V50.1h16.6c3.9 0 6.6.2 8 .6 2.2.6 4 2 5.4 4 1.4 2 2.1 4.4 2.1 7.3 0 3.9-1.2 6.9-3.5 9.1zM289.2 39c-.5-1-1.3-1.7-2.3-2.2-1-.5-2-.8-3-.8s-2 .3-3 .8-1.7 1.3-2.3 2.2c-.5 1-.8 2-.8 3s.3 2.1.8 3c.5 1 1.3 1.7 2.3 2.3 1 .5 2 .8 3 .8 1.1 0 2.1-.3 3-.8 1-.5 1.7-1.3 2.2-2.3.5-1 .8-2 .8-3 .1-1-.2-2-.7-3zm-.9 5.6c-.4.8-1.1 1.4-1.9 1.9-.8.4-1.6.7-2.5.7-.9 0-1.7-.2-2.5-.7-.8-.4-1.4-1.1-1.9-1.9-.4-.8-.7-1.6-.7-2.5 0-.9.2-1.7.7-2.5.5-.8 1.1-1.4 1.9-1.9.8-.4 1.6-.7 2.5-.7.8 0 1.7.2 2.5.7.8.4 1.4 1.1 1.9 1.9.5.8.7 1.7.7 2.5 0 .9-.2 1.7-.7 2.5zm-40-2.2L223.4 110h9.2l7-20.5h27.2l7.4 20.5h9.8l-26.1-67.6h-9.6zm-6.2 39.8L252.8 50l11.3 32.2h-22z"></path></svg>